<svg width="240" height="240" viewBox="0 0 240 240" xmlns="http://www.w3.org/2000/svg" role="img" aria-label="Pho Love">
  <defs><linearGradient id="pg" x1="0" y1="0" x2="1" y2="1"><stop offset="0" stop-color="#F0503E"/><stop offset="1" stop-color="#EC4B8E"/></linearGradient></defs>
  <circle cx="120" cy="120" r="120" fill="url(#pg)"/>
  <g fill="none" stroke="#fff" stroke-width="8" stroke-linecap="round" stroke-linejoin="round">
    <path d="M70 140 Q120 122 170 140"/><path d="M70 140 C72 172 92 191 120 191 C148 191 168 172 170 140"/>
    <path d="M106 195 Q120 201 134 195"/>
    <path d="M120 173 C112 163 100 161 100 151 C100 145 108 144 120 154 C132 144 140 145 140 151 C140 161 128 163 120 173 Z"/>
    <path d="M111 138 C107 124 118 118 112 104"/><path d="M123 138 C128 124 117 117 124 103"/>
    <path d="M150 69 L119 105"/><path d="M160 79 L129 111"/>
    <path d="M92 119 c-5 -8 5 -12 0 -20"/><path d="M104 112 c-5 -8 5 -12 0 -20"/>
  </g>
</svg>
